<?xml version="1.0" encoding="UTF-8" standalone="no"?>
<svg
   version="1.1"
   style="display: block;"
   viewBox="0 0 1657 2048"
   width="449"
   height="555"
   preserveAspectRatio="none"
   id="svg54"
   sodipodi:docname="MorphNanoBuddy5.svg"
   inkscape:version="1.4 (86a8ad7, 2024-10-11)"
   xmlns:inkscape="http://www.inkscape.org/namespaces/inkscape"
   xmlns:sodipodi="http://sodipodi.sourceforge.net/DTD/sodipodi-0.dtd"
   xmlns="http://www.w3.org/2000/svg"
   xmlns:svg="http://www.w3.org/2000/svg">
  <defs
     id="defs54" />
  <sodipodi:namedview
     id="namedview54"
     pagecolor="#ffffff"
     bordercolor="#666666"
     borderopacity="1.0"
     inkscape:showpageshadow="2"
     inkscape:pageopacity="0.0"
     inkscape:pagecheckerboard="0"
     inkscape:deskcolor="#d1d1d1"
     inkscape:zoom="1.3459459"
     inkscape:cx="215.09036"
     inkscape:cy="291.98795"
     inkscape:window-width="1920"
     inkscape:window-height="986"
     inkscape:window-x="-11"
     inkscape:window-y="-11"
     inkscape:window-maximized="1"
     inkscape:current-layer="svg54" />
  <path
     fill="#000000"
     d="m 851.023,443.012 c 12.365,-25.654 20.466,-50.762 23.852,-79.111 3.832,-32.085 12.045,-133.291 0.734,-160.439 -5.493,-13.185 -17.167,-23.464 -25.802,-34.622 -4.012,-5.185 -7.619,-11.2 -9.4,-17.554 -6.152,-21.949 -4.342,-77.7088 -1.125,-100.8097 1.568,-11.2596 5.368,-19.6452 14.663,-26.549 6.045,-4.4898 13.239,-7.2269 20.211,-9.9152 29.181,-11.25151 51.394,-11.13718 82.039,-6.72961 19.445,2.79671 39.907,6.84211 52.215,23.60081 20.89,28.4352 19.91,76.9317 19.89,110.8307 -0.01,16.112 0.33,32.147 -2.08,48.122 15.31,-24.226 42.04,-49.607 64.86,-67.148 31.11,-23.9072 54.78,-36.0617 94.8,-37.3746 9.69,-0.3179 19.64,-0.7657 29.27,0.581 12.64,1.7675 24.35,7.6435 32.1,17.9906 11.19,14.964 8.66,32.555 6.16,49.848 5.65,7.289 10.75,14.686 14.04,23.363 5.52,14.55 6.53,35.451 1.95,50.35 -11.37,36.944 -96.22,65.762 -129.2,81.707 -16.06,7.763 -45.44,24.993 -60.05,35.415 -10.99,7.836 -18.71,19.521 -26.57,30.279 -7.56,10.34 -15.39,21.047 -20.44,32.89 -9.53,22.372 -8.64,62.108 -9.78,86.798 -0.54,11.724 -1.52,24.999 -6.59,35.737 -0.14,0.288 -0.29,0.57 -0.43,0.855 9.05,5.016 17.31,11.431 25.27,18.003 85.23,70.36 134.19,198.092 144.38,305.921 58.5,38.24 78.1,63.875 112.81,123.352 18.19,0.731 34.86,1.754 52.83,5.224 -0.36,-24.909 6.93,-48.099 19.67,-69.384 15.02,-25.086 36.81,-44.586 65.66,-51.744 39,-9.673 76.27,-1.115 110.11,19.08 51.72,30.871 83.63,92.837 97.82,149.441 19.61,78.24 5.57,159.8 -35.59,228.46 1.85,28.22 6.2,55.38 5.73,83.82 -2.52,149.47 -87.95,284.68 -192.81,385.38 -12.24,11.76 -25.46,23.26 -38.88,33.66 -12.75,9.88 -73.5804,62.9088 -104.8714,80.011 -90.9272,45.9424 -89.7649,50.6927 -189.3997,76.5438 -152.16098,20.18 -222.57647,26.1893 -364.09466,7.2855 -91.02267,-19.1812 -154.65403,-33.7378 -232.22612,-74.1496 -16.409,-8.05 -114.87312,-88.1207 -136.23712,-108.0207 -54.518,-50.8 -104.628,-116.21 -140.809,-181.27 -53.199,-95.67 -76.241,-185.78 -74.977,-295.34 0.538,-60.05 9.298,-119.75 26.034,-177.43 -5.017,-2.13 -9.771,-4.59 -14.283,-7.67 -29.066,-19.81 -47.488,-54.5 -53.9397,-88.36 -8.3885,-44.034 3.4987,-91.356 28.3517,-128.132 -1.529,-21.37 -2.029,-43.427 0.266,-64.758 C 133.007,746.63 156.9,685.928 183.67,638.643 212.284,588.1 277.928,507.75 335.847,491.728 319.692,476.595 271.281,393.05 265.595,389.679 c -1.453,-0.861 -3.815,-1.364 -5.451,-1.949 -1.856,-2.603 0.214,-3.392 -0.449,-6.394 C 209.703,346.181 165.663,301.529 112.37,271.3 91.5662,259.5 68.3863,254.65 47.2422,244.086 29.89,235.416 13.1403,220.164 7.09809,201.225 1.94232,185.066 3.60545,162.212 11.68,147.204 c 6.5096,-12.098 15.4944,-17.418 28.3838,-21.36 5.3724,-15.915 12.0796,-32.2545 27.3716,-41.0004 16.5433,-9.4615 44.0096,-7.5423 61.7466,-2.6599 11.812,3.2118 23.001,8.3816 33.103,15.2943 29.64,19.969 81.981,73.722 99.484,104.823 -0.544,-4.51 -0.869,-9.044 -0.975,-13.586 -0.972,-35.945 8.344,-129.9651 34.211,-156.0468 11.787,-11.8856 37.595,-15.228 53.482,-12.7361 7.91,1.2407 15.857,4.1712 23.843,4.632 9.488,0.5475 19.506,-1.5261 29.123,-1.5319 17.822,-0.0107 41.373,-1.4286 54.771,12.661 10.424,10.962 11.712,27.4681 11.667,41.8171 -0.048,15.4146 0.34,32.1617 -3.799,47.0787 -14.431,52.005 -66.172,83.075 -66.667,141.845 -0.133,15.765 7.629,30.735 15.81,43.776 5.716,9.112 12.318,17.972 19.224,26.214 8.059,9.617 17.383,18.166 25.91,27.367 16.126,17.401 40.841,46.43 59.317,59.988 14.028,10.295 32.12,12.542 45.956,24.118 12.635,10.571 19.44,25.633 30.919,37.007 l 0.834,0.811 c 9.639,2.4 20.068,3.141 29.925,4.477 24.16,3.273 47.996,5.424 72.328,7.048 15.888,1.06 31.792,2.362 47.717,1.368 8.055,-5.3 14.932,-13.573 22.356,-19.874 23.824,-20.223 52.115,-33.234 83.302,-35.722 z"
     id="path1"
     sodipodi:nodetypes="cccccsscsccccsscccccccccccccccccccccccccccccccccccccccccccccccccccsssscccccccsccccccc" />
  <path
     transform="translate(0,0)"
     fill="rgb(241,91,88)"
     d="M 860.9 459.196 C 871.324 440.933 880.233 419.714 885.298 399.299 C 894.318 362.948 905.543 233.065 893.154 200.116 C 882.987 173.077 854.992 161.622 853.845 129.459 C 853.227 112.13 852.266 67.4628 855.708 52.6923 C 856.717 48.3607 858.307 44.8184 861.481 41.638 C 879.838 23.245 921.595 24.081 945.798 24.6871 C 959.77 25.037 980.758 26.1384 990.806 37.3727 C 997.299 44.6329 999.966 55.523 1002.31 64.7433 C 1015.73 117.58 1010.84 173.331 1007.28 227.079 C 1033.19 202.613 1056.66 174.275 1083.66 151.687 C 1114.32 126.043 1142.33 106.712 1183.46 103.398 C 1191.89 102.719 1200.62 101.939 1209.05 102.748 C 1217.35 103.544 1226.27 106.067 1231.6 112.919 C 1242.43 126.824 1234.27 145.586 1232.72 161.045 L 1232.6 162.297 C 1235.97 164.019 1239.59 165.503 1242.22 168.288 C 1252.96 179.74 1257.05 195.225 1256.59 210.74 C 1256.27 221.433 1252.46 228.798 1244.72 235.969 C 1230.65 248.992 1213.12 257.047 1196.03 265.218 C 1175.95 274.821 1155.14 283.108 1135.22 292.892 C 1121.4 299.679 1108 307.797 1094.72 315.589 C 1085.3 321.11 1075.06 326.515 1066.92 333.846 C 1055.58 344.058 1046.51 357.488 1037.99 370.066 C 1014.4 404.877 1009.56 418.441 1007.59 460.489 C 1006.6 481.595 1006.39 502.699 1004.5 523.757 C 985.018 518.368 966.799 509.898 946.855 506.014 C 909.424 502.312 874.84 503.781 844.457 528.819 C 837.012 534.954 829.349 542.478 823.534 550.22 C 836.924 544.354 848.104 534.675 861.91 529.536 C 888.686 517.994 918.621 517.655 946.843 523.658 C 959.939 526.965 973.426 530.104 985.89 535.365 C 1034.16 555.738 1071.39 598.149 1097.73 642.274 C 1119.92 679.457 1136.22 719.182 1149.02 760.48 C 1152 770.08 1156.1 781.646 1156.79 791.677 C 1170.75 839.8 1175.67 914.412 1166.02 963.631 C 1162.4 981.864 1156.07 999.453 1147.24 1015.81 C 1122.6 1060.58 1081.39 1095.99 1031.96 1110.39 C 1014.15 1115.57 991.471 1118.16 972.958 1115.13 C 954.297 1114.54 936.949 1110.59 919.281 1104.79 C 879.192 1091.62 850.654 1071.18 819.878 1042.66 C 833.188 1076.99 876.516 1098 907.715 1113.44 C 919.218 1118.06 930.559 1122.93 942.673 1125.74 C 959.661 1129.15 976.251 1131.68 993.609 1132.03 C 1038.72 1132.95 1087.33 1109.87 1119.63 1078.81 C 1161.54 1038.5 1181.62 984.218 1186.55 927.102 C 1187.97 910.739 1187.83 894.093 1188.16 877.673 C 1232.44 905.614 1260.78 942.219 1286.21 987.375 C 1295.64 1004.12 1305.28 1020.94 1313.19 1038.47 C 1318.54 1050.32 1322.77 1062.8 1327.53 1074.91 C 1334.88 1094.5 1342.06 1120.18 1352.68 1137.9 C 1345.86 1089.11 1331.97 1037.69 1306.94 994.9 C 1322.89 996.721 1338.91 997.997 1354.45 1002.23 C 1374.07 1007.57 1392.46 1016.15 1410.51 1025.36 C 1455.46 1048.29 1496.73 1076.7 1528.33 1116.54 C 1541.55 1133.2 1553.17 1151.81 1561.68 1171.32 C 1605.15 1253.51 1605.71 1368.78 1578.75 1456.1 C 1533.25 1603.48 1408.34 1743.54 1272.67 1814.87 C 1158.72 1873.46 1033.49 1906.8 905.502 1912.64 L 904.948 1912.02 C 909.156 1909.9 932.796 1906.89 940.192 1904.81 C 969.06 1896.5 997.22 1885.91 1024.41 1873.13 C 1111.51 1831.77 1188.21 1760.05 1239.94 1679.09 C 1250.56 1662.47 1260.59 1645.08 1270.11 1627.81 C 1274.41 1620.02 1278.61 1608.51 1284.25 1601.83 C 1294.82 1581.45 1306 1559.43 1310.2 1536.72 C 1300.59 1551.54 1290.71 1567.66 1282.95 1583.54 C 1277.22 1596.09 1269.17 1607.9 1262.29 1619.88 C 1221.22 1691.32 1171.23 1753.37 1107.15 1805.46 C 1092.07 1817.72 1076.87 1829.81 1060.35 1840.1 C 1027.93 1860.31 993.827 1875.61 957.663 1887.84 C 930.819 1896.91 902.377 1905.31 874.307 1909.43 C 810.959 1918.75 736.055 1908.19 673.868 1893.58 C 491.414 1850.71 345.603 1739.54 247.523 1580.83 C 150.406 1423.69 141.07 1272.18 182.438 1096.05 C 190.74 1099.41 200.069 1101.41 208.9 1102.77 C 250.625 1109.2 291.227 1097.08 326.351 1074.58 C 335.274 1068.86 343.63 1062.04 352.196 1055.79 C 360.599 1048.73 367.965 1040.14 375.039 1031.76 C 351.997 1045.56 332.871 1062.94 307.61 1073.25 C 296.546 1077.42 285.249 1080.62 273.883 1083.85 C 254.841 1089.16 228.772 1088.81 209.343 1085.07 C 179.141 1079.27 152.684 1063.67 135.414 1037.93 C 116.444 1009.73 109.468 975.139 116.024 941.79 C 117.548 921.317 125.827 902.778 134.114 884.322 C 137.06 893.658 139.975 902.989 143.332 912.187 C 152.117 933.429 164.642 951.236 183.661 964.477 C 214.092 985.816 251.819 994.038 288.369 987.295 C 328.515 979.935 368.634 952.043 395.47 921.988 C 405.552 910.697 414.001 898.452 422.579 885.998 C 447.553 850.588 467.514 785.75 472.469 742.836 C 478.221 693.017 479.328 627.548 446.304 586.455 C 427.782 563.408 403.381 552.479 374.268 549.429 C 334.012 545.212 292.488 560.568 261.589 585.694 C 257.203 582.005 258.088 576.469 253.712 572.645 C 268.723 552.688 305.905 525.351 328.546 514.802 C 341.054 508.974 353.959 505.38 367.239 501.832 C 387.442 495.645 408.206 492.703 429.156 497.027 C 446.894 497.788 465.644 509.447 480.829 517.719 C 477.933 512.325 474.927 506.983 471.044 502.223 C 455.973 483.747 433.248 479.795 410.738 477.62 C 406.004 478.109 400.982 477.927 396.209 478.063 C 381.331 481.31 366.27 482.522 351.433 486.455 C 335.75 460.958 317.703 436.597 300.861 411.836 C 292.148 399.027 283.704 382.307 272.872 371.391 C 266.567 365.037 258.351 359.94 251.222 354.503 C 240.001 345.826 228.833 337.08 217.72 328.264 C 192.276 308.187 162.913 280.224 136.229 264.109 C 109.616 248.036 44.7104 230.073 29.5408 207.124 C 23.5141 198.007 21.3535 185.921 23.4319 175.235 C 24.2148 168.636 24.5352 161.083 28.0569 155.299 C 33.047 147.102 43.3978 145.767 51.9674 143.761 C 53.4512 135.029 55.9459 127.444 60.1619 119.613 C 64.3264 111.879 70.1822 103.686 78.9053 101.022 C 93.1768 97.1832 118.388 99.3896 132.234 103.744 C 190.498 125.933 233.164 197.55 278.48 238.798 C 274.807 187.396 279.003 135.734 290.923 85.5983 C 293.691 73.9477 296.307 60.7322 302.947 50.584 C 307.452 43.6986 318.417 40.0246 326.12 38.4536 C 334.875 36.668 349.442 34.0936 357.35 39.3022 C 360.566 44.4444 358.83 48.8254 357.636 54.3827 C 384.201 39.6512 409.576 36.8122 439.156 43.978 C 443.687 46.5056 445.59 49.8492 447.054 54.7555 C 451.408 69.3512 451.531 106.415 448.387 122.002 C 447.299 127.396 445.256 132.181 442.493 136.93 C 435.441 149.055 427.976 161.536 420.255 173.253 C 413.142 184.048 404.963 194.486 398.66 205.759 C 385.648 229.029 378.232 260.144 384.944 286.468 C 389.977 306.205 400.849 321.63 410.674 338.958 C 429.639 362.204 451.273 383.885 472.52 405.022 C 482.902 415.35 493.257 426.617 504.733 435.742 C 513.52 442.728 524.435 446.268 534.507 450.979 C 557.863 461.904 572.366 482.005 586.889 502.355 C 599.332 504.76 612.151 506.09 624.71 507.823 C 666.562 513.6 710.009 518.329 752.319 516.388 C 761.05 509.938 768.142 500.948 776.431 493.839 C 798.863 474.6 831.113 460.361 860.9 459.196 z"
     id="path3" />
  <path
     transform="translate(0,0)"
     fill="rgb(189,52,52)"
     d="M 352.196 1055.79 L 353.642 1058.27 C 356.791 1058.16 359.203 1056.76 361.994 1055.41 C 338.202 1078.64 311.376 1098.81 283.501 1116.89 C 270.884 1125.07 257.386 1131.79 244.345 1139.26 C 235.524 1144.31 227.177 1150.14 218.438 1155.32 C 211.957 1159.16 201.569 1162.86 196.839 1168.69 C 192.172 1174.45 189.678 1184.05 187.225 1190.96 C 174.878 1225.77 167.373 1256.5 166.917 1293.6 C 166.626 1317.29 170.912 1339.53 176.153 1362.52 C 195.243 1446.26 229.172 1493.99 284.578 1557.61 C 291.545 1565.61 297.883 1574.24 305.053 1582.04 C 298.347 1568.18 293.806 1555.73 290.463 1540.68 C 296.334 1552.52 304.906 1562.9 313.22 1573.1 C 323.958 1586.27 335.259 1599.55 348.085 1610.75 C 386.589 1644.38 449.041 1676.82 497.277 1693.09 C 519.425 1700.56 541.315 1706.34 564.538 1708.94 C 558.101 1700.13 521.407 1661.03 520.736 1655.49 C 527.859 1655.95 537.78 1667.82 544.29 1671.73 C 550.077 1675.2 556.472 1678.23 562.594 1681.07 C 600.852 1698.99 641.933 1710.13 684.005 1713.99 C 672.536 1700.16 661.583 1686.09 651.527 1671.19 C 694.181 1676.22 733.848 1693.69 775.591 1702.99 C 905.225 1731.87 1020.83 1696.86 1123.58 1615.33 C 1128.32 1611.57 1132.56 1607.38 1136.71 1602.98 C 1131.07 1613.89 1122.62 1622.58 1116.6 1633.16 C 1097.52 1666.71 1081.93 1700.49 1056.14 1729.81 C 1047.08 1740.11 1036.47 1748.49 1027.02 1758.28 C 1095.63 1724.71 1163.75 1688.51 1216.26 1631.64 C 1210.06 1642.53 1203.46 1653.26 1198.38 1664.73 C 1218.61 1650.09 1238.82 1632.63 1255.34 1613.9 C 1260.2 1608.39 1273.39 1586.55 1277.93 1584.14 C 1278.84 1583.65 1281.79 1583.68 1282.95 1583.54 C 1277.22 1596.09 1269.17 1607.9 1262.29 1619.88 C 1221.22 1691.32 1171.23 1753.37 1107.15 1805.46 C 1092.07 1817.72 1076.87 1829.81 1060.35 1840.1 C 1027.93 1860.31 993.827 1875.61 957.663 1887.84 C 930.819 1896.91 902.377 1905.31 874.307 1909.43 C 810.959 1918.75 736.055 1908.19 673.868 1893.58 C 491.414 1850.71 345.603 1739.54 247.523 1580.83 C 150.406 1423.69 141.07 1272.18 182.438 1096.05 C 190.74 1099.41 200.069 1101.41 208.9 1102.77 C 250.625 1109.2 291.227 1097.08 326.351 1074.58 C 335.274 1068.86 343.63 1062.04 352.196 1055.79 z"
     id="path4" />
  <path
     transform="translate(0,0)"
     fill="rgb(189,52,52)"
     d="M 1561.68 1171.32 C 1605.15 1253.51 1605.71 1368.78 1578.75 1456.1 C 1533.25 1603.48 1408.34 1743.54 1272.67 1814.87 C 1158.72 1873.46 1033.49 1906.8 905.502 1912.64 L 904.948 1912.02 C 909.156 1909.9 932.796 1906.89 940.192 1904.81 C 969.06 1896.5 997.22 1885.91 1024.41 1873.13 C 1111.51 1831.77 1188.21 1760.05 1239.94 1679.09 C 1250.56 1662.47 1260.59 1645.08 1270.11 1627.81 C 1274.41 1620.02 1278.61 1608.51 1284.25 1601.83 L 1286.56 1602.95 C 1304.03 1601.97 1322.63 1594.76 1337.92 1586.6 C 1351.19 1579.53 1362.98 1570.08 1374.85 1560.93 C 1431.71 1517.08 1480.28 1458.83 1501.76 1389.3 C 1501.31 1405.6 1499.46 1421.82 1496.22 1437.79 C 1529.64 1382.65 1554.39 1313.82 1558.19 1249.24 C 1559.73 1222.99 1557.62 1196.7 1558.71 1170.73 C 1560.04 1171.93 1559.83 1171.88 1560.24 1173.48 L 1561.68 1171.32 z"
     id="path5" />
  <path
     transform="translate(0,0)"
     fill="rgb(189,52,52)"
     d="M 1232.6 162.297 C 1235.97 164.019 1239.59 165.503 1242.22 168.288 C 1252.96 179.74 1257.05 195.225 1256.59 210.74 C 1256.27 221.433 1252.46 228.798 1244.72 235.969 C 1230.65 248.992 1213.12 257.047 1196.03 265.218 C 1175.95 274.821 1155.14 283.108 1135.22 292.892 C 1121.4 299.679 1108 307.797 1094.72 315.589 C 1085.3 321.11 1075.06 326.515 1066.92 333.846 C 1055.58 344.058 1046.51 357.488 1037.99 370.066 C 1014.4 404.877 1009.56 418.441 1007.59 460.489 C 1006.6 481.595 1006.39 502.699 1004.5 523.757 C 985.018 518.368 966.799 509.898 946.855 506.014 C 948.375 505.972 951.553 506.167 952.964 505.68 C 954.906 505.009 957.423 502.054 958.841 500.509 C 974.334 483.625 976.389 459.384 982.692 438.282 C 988.464 418.959 994.368 396.464 1005.55 379.562 C 1012.49 369.077 1021.16 359.733 1029.55 350.405 C 1062.57 313.694 1099.18 284.696 1142.43 260.919 C 1164.11 249 1188.2 238.577 1208.51 224.48 C 1221.93 215.167 1228.58 204.475 1231.45 188.489 C 1232.72 179.864 1234.19 170.971 1232.6 162.297 z"
     id="path6" />
  <path
     transform="translate(0,0)"
     fill="rgb(163,32,31)"
     d="M 1232.6 162.297 C 1235.97 164.019 1239.59 165.503 1242.22 168.288 C 1241.42 168.917 1240.45 169.374 1239.83 170.175 C 1236.98 173.814 1238.73 191.192 1232.4 192.104 L 1231.45 188.489 C 1232.72 179.864 1234.19 170.971 1232.6 162.297 z"
     id="path7" />
  <path
     transform="translate(0,0)"
     fill="rgb(189,52,52)"
     d="M 1188.16 877.673 C 1232.44 905.614 1260.78 942.219 1286.21 987.375 C 1295.64 1004.12 1305.28 1020.94 1313.19 1038.47 C 1318.54 1050.32 1322.77 1062.8 1327.53 1074.91 L 1325.55 1074.8 C 1324.99 1076.34 1324.7 1077.68 1324.5 1079.31 L 1323.43 1079.21 C 1304.49 1043.49 1284.45 1008.2 1259.77 976.051 C 1245.39 957.319 1225.65 942.501 1214.59 921.522 C 1207.54 945.707 1202.12 970.907 1193.03 994.387 C 1173.5 1044.84 1131.99 1095.91 1084.33 1121.91 C 1052 1139.55 1019.24 1146.59 982.607 1140.32 C 973.511 1138.76 962.3 1134.56 953.369 1134.33 C 949.335 1132.07 946.078 1128.83 942.673 1125.74 C 959.661 1129.15 976.251 1131.68 993.609 1132.03 C 1038.72 1132.95 1087.33 1109.87 1119.63 1078.81 C 1161.54 1038.5 1181.62 984.218 1186.55 927.102 C 1187.97 910.739 1187.83 894.093 1188.16 877.673 z"
     id="path8" />
  <path
     transform="translate(0,0)"
     fill="rgb(189,52,52)"
     d="M 23.4319 175.235 C 31.077 183.277 37.4277 191.438 46.221 198.483 C 61.7906 210.958 79.3571 219.129 97.0358 228.01 C 126.025 242.574 156.284 256.408 182.899 275.048 C 202.655 288.883 221.484 304.221 240.47 319.097 C 253.911 329.629 268.65 339.887 280.589 352.087 C 290.581 362.297 298.559 374.184 307.681 385.131 C 323.4 403.995 342.066 424.568 359.226 442.187 C 365.613 451.647 379.685 474.486 390.472 477.662 C 392.256 478.187 394.364 478.107 396.209 478.063 C 381.331 481.31 366.27 482.522 351.433 486.455 C 335.75 460.958 317.703 436.597 300.861 411.836 C 292.148 399.027 283.704 382.307 272.872 371.391 C 266.567 365.037 258.351 359.94 251.222 354.503 C 240.001 345.826 228.833 337.08 217.72 328.264 C 192.276 308.187 162.913 280.224 136.229 264.109 C 109.616 248.036 44.7104 230.073 29.5408 207.124 C 23.5141 198.007 21.3535 185.921 23.4319 175.235 z"
     id="path9" />
  <path
     transform="translate(0,0)"
     fill="rgb(189,52,52)"
     d="M 116.024 941.79 C 115.94 945.871 115.62 950.302 116.216 954.339 C 119.747 978.241 137.063 1010 153.941 1027.38 C 173.881 1047.92 215.744 1064.01 244.052 1068.44 C 254.133 1069.36 297.2 1070.52 303.259 1072.55 C 304.867 1073.09 305.939 1073.18 307.61 1073.25 C 296.546 1077.42 285.249 1080.62 273.883 1083.85 C 254.841 1089.16 228.772 1088.81 209.343 1085.07 C 179.141 1079.27 152.684 1063.67 135.414 1037.93 C 116.444 1009.73 109.468 975.139 116.024 941.79 z"
     id="path10" />
  <path
     transform="translate(0,0)"
     fill="rgb(214,69,70)"
     d="M 216.454 1066.96 C 222.927 1067.81 238.906 1071.6 244.052 1068.44 C 254.133 1069.36 297.2 1070.52 303.259 1072.55 C 304.867 1073.09 305.939 1073.18 307.61 1073.25 C 296.546 1077.42 285.249 1080.62 273.883 1083.85 C 273.108 1082.57 272.012 1080.86 270.775 1080.02 C 264.456 1075.68 236.72 1080.54 216.454 1066.96 z"
     id="path11" />
  <path
     transform="translate(0,0)"
     fill="rgb(189,52,52)"
     d="M 1156.79 791.677 C 1170.75 839.8 1175.67 914.412 1166.02 963.631 C 1162.4 981.864 1156.07 999.453 1147.24 1015.81 C 1122.6 1060.58 1081.39 1095.99 1031.96 1110.39 C 1014.15 1115.57 991.471 1118.16 972.958 1115.13 C 974.641 1115.03 976.327 1114.89 978.01 1114.82 C 980.191 1114.73 982.303 1114.71 984.458 1114.3 C 1042.37 1103.31 1102.93 1062.55 1132.59 1011.33 C 1150.93 979.662 1163.49 924.835 1164.17 888.405 C 1164.33 881.57 1164.04 874.731 1163.31 867.934 C 1162.69 862.176 1155.8 827.573 1157.39 825.234 C 1159.79 833.692 1161.63 861.493 1165.72 866.551 C 1165.43 856.671 1166.23 843.966 1162.96 834.661 C 1161.49 830.5 1156.58 797.084 1156.75 792.542 C 1156.76 792.253 1156.78 791.965 1156.79 791.677 z"
     id="path12" />
  <path
     transform="translate(0,0)"
     fill="rgb(189,52,52)"
     d="M 439.156 43.978 C 443.687 46.5056 445.59 49.8492 447.054 54.7555 C 451.408 69.3512 451.531 106.415 448.387 122.002 C 447.299 127.396 445.256 132.181 442.493 136.93 C 435.441 149.055 427.976 161.536 420.255 173.253 C 413.142 184.048 404.963 194.486 398.66 205.759 C 385.648 229.029 378.232 260.144 384.944 286.468 C 389.977 306.205 400.849 321.63 410.674 338.958 C 408.432 338.905 406.708 338.884 404.724 337.648 C 392.436 329.992 371.817 302.956 367.937 288.927 C 358.84 256.031 377.462 219.511 392.234 191.125 C 398.743 178.618 405.265 166.001 413.157 154.292 C 420.717 143.078 431.473 133.64 435.305 120.263 C 440.875 100.817 431.594 57.0863 439.156 43.978 z"
     id="path13" />
  <path
     transform="translate(0,0)"
     fill="rgb(189,52,52)"
     d="M 422.579 885.998 C 421.853 889.756 421.736 894.133 420.376 897.673 C 410.144 924.3 369.018 963.755 345.217 980.006 C 316.725 999.461 278.017 1008.61 243.981 1001.77 C 223.663 997.686 189.096 981.65 172.878 968.646 C 166.452 963.421 160.898 957.207 156.423 950.237 C 151.177 942.19 139.708 925.653 142.045 915.855 C 142.293 914.819 142.722 913.906 143.093 912.92 C 143.183 912.679 143.252 912.431 143.332 912.187 C 152.117 933.429 164.642 951.236 183.661 964.477 C 214.092 985.816 251.819 994.038 288.369 987.295 C 328.515 979.935 368.634 952.043 395.47 921.988 C 405.552 910.697 414.001 898.452 422.579 885.998 z"
     id="path14" />
  <path
     transform="translate(0,0)"
     fill="rgb(244,131,125)"
     d="M 861.91 529.536 C 888.686 517.994 918.621 517.655 946.843 523.658 C 946.203 526.013 943.952 527.556 941.896 528.686 C 932.242 533.991 877.247 537.971 867.019 534.172 C 864.155 533.109 863.444 532.114 861.91 529.536 z"
     id="path15" />
  <path
     transform="translate(0,0)"
     fill="rgb(214,69,70)"
     d="M 359.226 442.187 C 375.037 447.698 382.832 465.163 395.745 475.013 C 396.43 475.535 397.089 476.092 397.763 476.629 C 401.148 476.618 408.013 475.702 410.738 477.62 C 406.004 478.109 400.982 477.927 396.209 478.063 C 394.364 478.107 392.256 478.187 390.472 477.662 C 379.685 474.486 365.613 451.647 359.226 442.187 z"
     id="path16" />
  <path
     transform="translate(0,0)"
     fill="rgb(214,69,70)"
     d="M 367.239 501.832 C 387.442 495.645 408.206 492.703 429.156 497.027 C 410.532 497.535 385.393 507.033 367.239 501.832 z"
     id="path17" />
  <path
     transform="translate(0,0)"
     fill="rgb(214,69,70)"
     d="M 907.715 1113.44 C 919.218 1118.06 930.559 1122.93 942.673 1125.74 C 946.078 1128.83 949.335 1132.07 953.369 1134.33 C 943.872 1134.09 930.953 1129.83 922.256 1125.92 C 916.021 1123.11 910.224 1120.15 907.715 1113.44 z"
     id="path18" />
  <path
     transform="translate(0,0)"
     fill="rgb(214,69,70)"
     d="M 78.9053 101.022 C 93.1768 97.1832 118.388 99.3896 132.234 103.744 C 112.742 107.158 98.2353 101.277 78.9053 101.022 z"
     id="path19" />
  <path
     transform="translate(0,0)"
     fill="rgb(0,0,0)"
     d="M 815.624 943.022 C 773.641 872.775 770.228 787.537 789.797 709.42 C 801.54 662.547 825.107 615.532 867.91 589.992 C 895.472 573.546 928.457 569.703 959.329 577.718 C 1005.77 589.776 1040.48 625.962 1063.88 666.366 C 1100.78 730.069 1117.51 834.359 1098.42 906.054 C 1091.61 931.644 1081.02 963.434 1061.24 981.999 C 1062.16 987.677 1060.65 990.467 1057.48 995.085 C 1041.63 1018.15 1013.25 1031.6 986.479 1036.56 C 946.749 1043.87 905.744 1035.03 872.552 1012.01 C 852.764 998.162 839.727 983.253 824.96 964.528 C 820.379 958.72 813.914 952.385 812.589 944.841 L 814.545 944.948 L 815.624 943.022 z"
     id="path20" />
  <path
     transform="translate(0,0)"
     fill="rgb(189,52,52)"
     d="M 815.624 943.022 C 848.968 986.608 885.75 1016.32 941.949 1023.54 C 973.718 1027.63 1012.03 1024.41 1038.04 1004.14 C 1046.43 997.59 1053.84 989.638 1061.24 981.999 C 1062.16 987.677 1060.65 990.467 1057.48 995.085 C 1041.63 1018.15 1013.25 1031.6 986.479 1036.56 C 946.749 1043.87 905.744 1035.03 872.552 1012.01 C 852.764 998.162 839.727 983.253 824.96 964.528 C 820.379 958.72 813.914 952.385 812.589 944.841 L 814.545 944.948 L 815.624 943.022 z"
     id="path21" />
  <path
     transform="translate(0,0)"
     fill="rgb(250,238,236)"
     d="M 823.326 928.105 C 814.455 914.074 807.444 898.952 802.468 883.116 C 780.217 810.81 787.474 723.94 823.305 657.11 C 838.498 628.773 861.43 604.421 893.109 595.044 C 923.303 586.108 956.699 588.673 984.411 603.847 C 1027.92 627.673 1058.18 674.232 1073.55 720.441 C 1078.1 734.154 1080.6 748.461 1084.68 762.331 C 1099.69 821.265 1098.95 898.448 1067.08 951.815 C 1050.09 980.262 1027.5 1000.18 994.93 1008.06 C 955.306 1017.65 912.28 1007.19 878.144 986.153 C 856.032 972.526 835.255 951.475 823.326 928.105 z"
     id="path22" />
  <path
     transform="translate(0,0)"
     fill="rgb(224,185,165)"
     d="M 1084.68 762.331 C 1099.69 821.265 1098.95 898.448 1067.08 951.815 C 1050.09 980.262 1027.5 1000.18 994.93 1008.06 C 955.306 1017.65 912.28 1007.19 878.144 986.153 C 856.032 972.526 835.255 951.475 823.326 928.105 C 832.128 930.479 840.121 938.796 847.867 943.619 C 880.768 964.103 919.432 976.275 958.331 972.637 C 984.736 970.167 1012.18 956.243 1030.95 937.798 C 1053.7 915.455 1070.82 885.235 1077.21 853.827 C 1080.34 838.444 1080.52 768.455 1082.11 765.403 C 1082.63 764.404 1083.93 763.227 1084.68 762.331 z"
     id="path23" />
  <path
     transform="translate(0,0)"
     fill="rgb(0,0,0)"
     d="M 908.639 637.315 C 921.195 637.577 934.512 642.348 944.377 650.093 C 962.863 664.605 973.626 691.107 976.366 713.899 C 979.902 743.307 974.864 778.208 955.781 801.883 C 944.018 816.476 930.392 823.697 911.92 825.625 C 898.649 825.796 886.237 823.613 875.128 815.96 C 857.391 803.74 849.582 783.977 845.812 763.52 C 839.88 731.33 845.237 692.722 864.333 665.555 C 875.676 649.418 889.284 640.664 908.639 637.315 z"
     id="path24" />
  <path
     transform="translate(0,0)"
     fill="rgb(250,238,236)"
     d="M 923.119 682.087 C 927.793 681.779 932.448 681.76 936.785 683.779 C 942.578 686.477 946.984 691.755 949.144 697.708 C 951.762 704.922 951.596 713.999 948.296 720.976 C 945.551 726.781 941.493 730.969 935.454 733.167 C 930.997 733.354 926.657 733.477 922.51 731.572 C 915.936 728.551 911.054 722.441 908.624 715.733 C 906.091 708.741 905.949 700.339 909.271 693.586 C 912.514 686.994 916.533 684.446 923.119 682.087 z"
     id="path25" />
  <path
     transform="translate(0,0)"
     fill="rgb(0,0,0)"
     d="M 319.053 1447.39 C 295.912 1432.44 275.321 1411.14 263.056 1386.27 C 247.103 1353.92 246.425 1316.31 258.337 1282.52 C 268.143 1254.7 289.118 1229.41 316.004 1216.79 C 344.386 1203.47 375.78 1205.67 404.643 1216.41 C 451.101 1233.7 500.041 1280.05 520.852 1324.96 L 524.556 1323.94 C 528.143 1332.63 531.363 1342.24 536.009 1350.37 C 546.862 1369.37 569.391 1385.14 589.231 1393.39 C 608.773 1401.52 632.588 1404.45 652.603 1396.14 C 656.042 1394.71 659.295 1392.6 662.332 1390.46 C 671.656 1414.12 686.629 1433.83 710.387 1444.15 C 725.207 1450.58 739.719 1452.54 755.734 1452.81 C 759.494 1461.09 763.691 1469.47 768.352 1477.28 C 760.875 1482.51 748.641 1480.48 740.094 1479.09 C 705.247 1473.42 684.972 1447.03 665.686 1420.23 C 664.028 1421.62 662.215 1422.81 660.283 1423.78 C 641.714 1433.01 610.519 1426.13 592.265 1419.02 C 584.556 1416.02 577.298 1411.46 569.472 1408.88 C 567.34 1408.17 560.627 1406.27 558.845 1407.89 C 555.377 1411.06 551.92 1419.82 550.079 1424.15 C 532.932 1464.45 527.482 1481.08 484.776 1501.75 C 447.889 1519.6 400.7 1517.45 362.633 1504.01 C 338.039 1495.33 303.55 1478.42 291.975 1454.24 C 297.259 1452.37 302.589 1450.54 308.08 1449.37 C 311.806 1448.57 315.466 1448.86 319.053 1447.39 z"
     id="path26" />
  <path
     transform="translate(0,0)"
     fill="rgb(189,52,52)"
     d="M 524.556 1323.94 C 528.143 1332.63 531.363 1342.24 536.009 1350.37 C 546.862 1369.37 569.391 1385.14 589.231 1393.39 C 608.773 1401.52 632.588 1404.45 652.603 1396.14 C 656.042 1394.71 659.295 1392.6 662.332 1390.46 C 671.656 1414.12 686.629 1433.83 710.387 1444.15 C 725.207 1450.58 739.719 1452.54 755.734 1452.81 C 759.494 1461.09 763.691 1469.47 768.352 1477.28 C 760.875 1482.51 748.641 1480.48 740.094 1479.09 C 705.247 1473.42 684.972 1447.03 665.686 1420.23 C 664.028 1421.62 662.215 1422.81 660.283 1423.78 C 641.714 1433.01 610.519 1426.13 592.265 1419.02 C 584.556 1416.02 577.298 1411.46 569.472 1408.88 C 567.34 1408.17 560.627 1406.27 558.845 1407.89 C 555.377 1411.06 551.92 1419.82 550.079 1424.15 C 532.932 1464.45 527.482 1481.08 484.776 1501.75 C 447.889 1519.6 400.7 1517.45 362.633 1504.01 C 338.039 1495.33 303.55 1478.42 291.975 1454.24 C 297.259 1452.37 302.589 1450.54 308.08 1449.37 C 311.806 1448.57 315.466 1448.86 319.053 1447.39 C 325.333 1449.01 332.107 1453.78 338.291 1456.2 C 359.227 1464.4 424.166 1475.42 446.826 1474.86 C 460.045 1474.53 473.785 1471.97 485.937 1466.66 C 505.922 1457.92 525.296 1440.23 533.097 1419.56 C 540.58 1399.74 539.96 1370.77 532.999 1350.91 C 529.888 1342.03 524.754 1333.55 520.852 1324.96 L 524.556 1323.94 z"
     id="path27" />
  <path
     transform="translate(0,0)"
     fill="rgb(241,91,88)"
     d="M 342.279 1441.77 C 318.468 1430.02 296.868 1412.49 282.245 1390.13 C 265.031 1363.81 260.681 1332.2 267.342 1301.73 C 273.015 1275.77 288.417 1250.39 311.066 1235.94 C 332.57 1222.22 359.633 1220.76 383.995 1226.37 C 434.958 1238.1 477.767 1280.44 504.43 1323.53 C 519.927 1348.52 528.266 1378.21 521.292 1407.59 C 517.444 1423.81 507.284 1436.57 493.075 1445.07 C 470.804 1458.39 442.695 1458.34 418.167 1451.89 C 386.945 1443.69 360.123 1426.97 342.365 1399.74 C 339.532 1399.21 338.586 1398.58 335.995 1399.98 C 335.408 1403.56 338.565 1407.6 340.206 1410.7 C 340.649 1411.54 340.54 1411.19 340.587 1412.07 C 349.745 1433.43 367.371 1443.86 386.059 1456.22 C 371.777 1452.89 355.2 1448.83 342.279 1441.77 z"
     id="path28" />
  <path
     transform="translate(0,0)"
     fill="rgb(189,52,52)"
     d="M 504.43 1323.53 C 519.927 1348.52 528.266 1378.21 521.292 1407.59 C 517.444 1423.81 507.284 1436.57 493.075 1445.07 C 470.804 1458.39 442.695 1458.34 418.167 1451.89 C 386.945 1443.69 360.123 1426.97 342.365 1399.74 C 337.373 1392.12 332.547 1384.69 329.521 1376.05 C 337.725 1379.99 343.721 1388.11 350.399 1394.17 C 373.449 1415.08 402.246 1431.36 433.633 1434.13 C 452.832 1435.82 478.297 1433.11 493.5 1420.06 C 511.189 1404.87 515.132 1375.75 510.432 1354.05 C 508.432 1344.82 503.49 1333.75 504.319 1324.47 C 504.347 1324.15 504.393 1323.84 504.43 1323.53 z"
     id="path29" />
  <path
     transform="translate(0,0)"
     fill="rgb(189,52,52)"
     d="M 340.587 1412.07 C 349.745 1433.43 367.371 1443.86 386.059 1456.22 C 371.777 1452.89 355.2 1448.83 342.279 1441.77 L 343.517 1441.04 C 345.941 1435.83 339.049 1422.44 337.158 1416.89 L 340.587 1412.07 z"
     id="path30" />
  <path
     transform="translate(0,0)"
     fill="rgb(25,0,0)"
     d="M 337.158 1416.89 C 327.375 1399.61 324.392 1381.73 320.736 1362.63 C 323.894 1367.01 326.853 1371.35 329.521 1376.05 C 332.547 1384.69 337.373 1392.12 342.365 1399.74 C 339.532 1399.21 338.586 1398.58 335.995 1399.98 C 335.408 1403.56 338.565 1407.6 340.206 1410.7 C 340.649 1411.54 340.54 1411.19 340.587 1412.07 L 337.158 1416.89 z"
     id="path31" />
  <path
     transform="translate(0,0)"
     fill="rgb(244,131,125)"
     d="M 334.396 1239.15 C 334.742 1239.12 335.086 1239.08 335.432 1239.07 C 339.117 1238.94 344.041 1239.18 346.65 1242.22 C 348.506 1244.38 348.399 1247.42 347.733 1250 C 343.559 1266.18 320.103 1282.48 306.139 1290.46 C 303.637 1290.81 299.32 1291.83 296.927 1291 C 294.843 1290.28 293.384 1288.93 292.574 1286.87 C 291.1 1283.13 292.966 1278.91 294.488 1275.46 C 302.365 1257.56 316.385 1245.98 334.396 1239.15 z"
     id="path32" />
  <path
     transform="translate(0,0)"
     fill="rgb(0,0,0)"
     d="M 718.966 847.016 C 719.528 847.426 720.161 848.405 720.605 848.958 C 726.356 881.224 723.05 928.137 718.097 960.636 C 709.398 1017.73 689.264 1102.71 639.736 1138.68 C 629.005 1146.48 617.061 1151.77 603.579 1149.42 C 580.806 1145.44 562.512 1125.9 549.805 1107.95 C 506.619 1038.33 509.836 944.463 516.184 865.885 C 529.684 867.844 542.884 871.571 556.449 873.316 C 616.751 881.074 663.366 869.352 718.966 847.016 z"
     id="path33" />
  <path
     transform="translate(0,0)"
     fill="rgb(68,15,16)"
     d="M 709.56 862.911 C 710.54 863.041 711.137 863.548 711.964 864.061 C 715.018 874.049 709.783 931.198 708.013 945.864 C 706.78 956.076 699.8 1012.8 692.576 1018.45 C 691.025 1016.94 690.275 1015.01 688.797 1013.47 C 684.709 1009.21 677.91 1006.13 672.227 1004.81 C 653.562 1000.47 633.565 1008.25 618.014 1018.21 C 597.838 1031.14 580.683 1056.18 575.645 1079.58 C 571.71 1097.86 572.069 1110.25 582.277 1126.15 C 574.883 1119.05 568.302 1112.08 562.566 1103.55 C 524.94 1047.5 517.617 942.958 527.161 877.866 C 528.209 878.393 528.662 878.659 529.699 879.059 C 539.66 882.903 552.755 883.807 563.421 884.975 C 615.622 890.691 661.234 883.09 709.56 862.911 z"
     id="path34" />
  <path
     transform="translate(0,0)"
     fill="rgb(189,52,52)"
     d="M 661.543 1015.4 C 672.494 1015.02 681.172 1024.32 688.975 1030.93 C 683.43 1051.99 674.175 1073.84 662.733 1092.41 C 651.368 1110.85 633.667 1132.85 611.554 1138.05 C 604.892 1137.46 598.144 1134.01 593.208 1129.47 C 585.852 1122.72 583.498 1112.83 582.986 1103.24 C 581.761 1080.29 590.905 1059.43 606.193 1042.57 C 620.789 1026.48 639.735 1016.43 661.543 1015.4 z"
     id="path35" />
  <path
     transform="translate(0,0)"
     fill="rgb(0,0,0)"
     d="M 651.798 1324.68 C 657.048 1280.27 679.213 1237.82 714.386 1209.84 C 742.417 1187.55 777.025 1174.61 813.078 1178.72 C 835.007 1181.22 859.5 1190.58 876.638 1204.66 C 884.678 1211.26 891.862 1219.19 900.395 1225.15 C 915.345 1235.59 931.546 1243.97 943.083 1258.61 C 945.499 1261.67 947.506 1265.05 949.618 1268.32 C 933.442 1253.94 915.489 1241.94 899.658 1227.18 C 917.489 1252.91 925.562 1275.9 926.533 1307.29 C 914.477 1266.83 899.483 1231.43 860.151 1209.88 C 830.138 1193.44 793.977 1191.53 761.525 1201.26 C 727.796 1211.37 699.275 1239.27 683.122 1269.9 C 668.704 1297.23 664.792 1324.81 667.034 1355.31 L 668.79 1357.53 L 671.504 1357.69 C 675.761 1363.41 679.076 1369.88 683.781 1375.24 C 697.194 1390.52 721.439 1400.61 741.22 1403.41 C 775.572 1408.29 804.21 1395.95 831.072 1375.5 C 842.312 1366.95 851.375 1357.62 861.529 1347.91 L 862.482 1349.14 C 861.445 1354.04 856.503 1358.23 856.895 1362.86 L 859.045 1363.92 L 861.222 1363.66 C 861.73 1373.06 853.188 1386.47 848.424 1394.28 C 851.517 1402.73 844.24 1418.3 843.518 1427.79 C 840.943 1461.6 850.93 1521.67 879.876 1542.12 C 884.609 1544.49 891.179 1549.14 892.596 1554.57 C 893.002 1556.13 892.602 1558.07 892.343 1559.64 C 896.319 1561.45 900.114 1563.61 903.943 1565.71 C 900.967 1565.44 898.002 1565.05 895.056 1564.55 C 861.488 1558.58 824.73 1539.15 800.157 1515.65 C 788.136 1504.16 777.925 1490.84 768.352 1477.28 C 763.691 1469.47 759.494 1461.09 755.734 1452.81 C 739.719 1452.54 725.207 1450.58 710.387 1444.15 C 686.629 1433.83 671.656 1414.12 662.332 1390.46 C 659.295 1392.6 656.042 1394.71 652.603 1396.14 C 632.588 1404.45 608.773 1401.52 589.231 1393.39 C 569.391 1385.14 546.862 1369.37 536.009 1350.37 C 531.363 1342.24 528.143 1332.63 524.556 1323.94 L 522.738 1319.31 C 522.705 1316.69 522.787 1314.7 523.627 1312.21 C 526.158 1311.89 527.313 1313.38 529.363 1314.77 L 529.307 1309.23 C 555.903 1326.86 580.321 1345.58 614.308 1338.75 C 627.769 1336.04 638.885 1327.94 651.798 1324.68 z"
     id="path36" />
  <path
     transform="translate(0,0)"
     fill="rgb(189,52,52)"
     d="M 764.829 1452.3 C 802.878 1446.7 824.785 1421.92 848.424 1394.28 C 851.517 1402.73 844.24 1418.3 843.518 1427.79 C 840.943 1461.6 850.93 1521.67 879.876 1542.12 C 884.609 1544.49 891.179 1549.14 892.596 1554.57 C 893.002 1556.13 892.602 1558.07 892.343 1559.64 L 883.415 1555.49 C 874.426 1554.04 865.078 1547.95 857.088 1543.72 C 829.584 1529.16 805.246 1510.35 786.913 1484.95 C 779.22 1474.29 772.653 1462.88 764.829 1452.3 z"
     id="path37" />
  <path
     transform="translate(0,0)"
     fill="rgb(214,69,70)"
     d="M 879.876 1542.12 C 884.609 1544.49 891.179 1549.14 892.596 1554.57 C 893.002 1556.13 892.602 1558.07 892.343 1559.64 L 883.415 1555.49 L 881.356 1550.91 C 879.791 1547.52 879.293 1545.88 879.876 1542.12 z"
     id="path38" />
  <path
     transform="translate(0,0)"
     fill="rgb(189,52,52)"
     d="M 667.034 1355.31 L 668.79 1357.53 L 671.504 1357.69 C 675.761 1363.41 679.076 1369.88 683.781 1375.24 C 697.194 1390.52 721.439 1400.61 741.22 1403.41 C 775.572 1408.29 804.21 1395.95 831.072 1375.5 C 842.312 1366.95 851.375 1357.62 861.529 1347.91 L 862.482 1349.14 C 861.445 1354.04 856.503 1358.23 856.895 1362.86 L 859.045 1363.92 C 858.62 1364.67 858.493 1364.93 857.939 1365.72 C 835.468 1397.81 803.855 1429.84 763.74 1436.26 C 743.321 1439.53 719.056 1435.43 702.181 1422.99 C 680.649 1407.12 670.74 1380.89 667.034 1355.31 z"
     id="path39" />
  <path
     transform="translate(0,0)"
     fill="rgb(189,52,52)"
     d="M 529.307 1309.23 C 555.903 1326.86 580.321 1345.58 614.308 1338.75 C 627.769 1336.04 638.885 1327.94 651.798 1324.68 C 651.739 1344.83 652.999 1362.31 657.935 1381.91 C 640.506 1390.36 620.491 1391.78 602.045 1385.86 C 578.064 1378.33 553.993 1361.87 541.324 1339.72 C 536.871 1331.93 533.971 1323.37 529.743 1315.47 L 529.363 1314.77 L 529.307 1309.23 z"
     id="path40" />
  <path
     transform="translate(0,0)"
     fill="rgb(244,131,125)"
     d="M 748.734 1216.96 C 753.323 1216.63 757.072 1216.75 761.003 1219.37 C 762.681 1221.98 763.615 1223.61 762.83 1226.87 C 759.712 1239.79 731.685 1261.29 720.394 1268.42 C 716.808 1270.25 712.979 1271.23 709.129 1272.35 C 708.603 1263.74 708.448 1256.95 712.21 1248.99 C 718.882 1234.88 734.186 1222.14 748.734 1216.96 z"
     id="path41" />
  <path
     transform="translate(0,0)"
     fill="rgb(0,0,0)"
     d="M 1179.51 1098.62 C 1179.67 1099.08 1179.87 1099.52 1179.98 1099.98 C 1183.28 1113 1161.91 1145.56 1154.32 1155.51 C 1135.07 1180.77 1104.97 1207.26 1072.38 1211.71 C 1071.97 1209.94 1072.05 1209.73 1073.48 1208.46 C 1077.39 1205 1085.48 1202.1 1090.34 1199.44 C 1098.24 1195.12 1105.85 1190.29 1113.14 1184.98 C 1143.09 1162.73 1163.18 1131.57 1179.51 1098.62 z"
     id="path42" />
  <path
     transform="translate(0,0)"
     fill="rgb(0,0,0)"
     d="M 1400.12 1352.36 C 1401.17 1353.19 1401.77 1353.66 1402.21 1355.01 C 1407.52 1371.34 1384.71 1429.97 1375.33 1444.15 C 1373.32 1440.16 1377.17 1433.81 1378.75 1429.89 C 1389.01 1404.44 1394.39 1379.08 1400.12 1352.36 z"
     id="path43" />
  <path
     transform="translate(0,0)"
     fill="rgb(244,131,125)"
     d="M 1329.89 1019.25 C 1338.91 1018.59 1375.77 1019.77 1383.8 1021.76 C 1387.62 1022.7 1389.33 1023.47 1391.35 1026.77 C 1378.29 1028.63 1342.46 1026.28 1330.65 1021.78 L 1329.89 1019.25 z"
     id="path44" />
  <path
     transform="translate(0,0)"
     fill="rgb(25,0,0)"
     d="M 522.738 1319.31 C 520.859 1313.57 510.889 1289.99 511.719 1285.63 C 518.785 1289.58 524.697 1302.53 529.307 1309.23 L 529.363 1314.77 C 527.313 1313.38 526.158 1311.89 523.627 1312.21 C 522.787 1314.7 522.705 1316.69 522.738 1319.31 z"
     id="path45" />
  <path
     transform="translate(0,0)"
     fill="rgb(250,238,236)"
     d="M 254.061 595.91 L 255.129 598.287 C 257.559 598.73 259.131 597.961 261.291 596.955 C 267.139 594.233 272.524 590.213 278.095 586.95 C 286.176 582.219 294.945 578.023 303.653 574.609 C 349.745 556.54 410.326 557.175 440.808 601.625 C 470.553 645 466.49 711.815 457.179 761.268 C 454.454 775.742 449.434 790.138 445.304 804.274 C 443.136 814.251 439 824.029 435.122 833.45 C 416.473 878.75 385.83 923.425 344.147 950.255 C 312.196 970.82 273.207 982.029 235.44 973.597 C 207.405 967.338 181.245 951.621 165.766 927.021 C 151.822 904.862 143.514 872.071 144.053 846.031 C 139.576 756.205 185.572 656.618 240.52 587.606 C 244.538 582.212 249.04 577.47 253.712 572.645 C 258.088 576.469 257.203 582.005 261.589 585.694 C 258.143 588.907 256.238 591.801 254.061 595.91 z"
     id="path46" />
  <path
     transform="translate(0,0)"
     fill="rgb(224,185,165)"
     d="M 144.053 846.031 C 154.828 865.428 159.426 886.723 174.422 903.952 C 197.524 930.496 226.504 941.661 261.052 943.826 C 329.331 948.106 387.33 902.19 419.861 845.666 C 422.859 840.456 438.333 809.494 441.057 807.413 C 442.451 806.348 443.887 805.31 445.304 804.274 C 443.136 814.251 439 824.029 435.122 833.45 C 416.473 878.75 385.83 923.425 344.147 950.255 C 312.196 970.82 273.207 982.029 235.44 973.597 C 207.405 967.338 181.245 951.621 165.766 927.021 C 151.822 904.862 143.514 872.071 144.053 846.031 z"
     id="path47" />
  <path
     transform="translate(0,0)"
     fill="rgb(224,185,165)"
     d="M 253.712 572.645 C 258.088 576.469 257.203 582.005 261.589 585.694 C 258.143 588.907 256.238 591.801 254.061 595.91 L 253.181 593.292 C 249.52 590.292 245.374 590.037 241.226 587.967 C 240.989 587.849 240.755 587.727 240.52 587.606 C 244.538 582.212 249.04 577.47 253.712 572.645 z"
     id="path48" />
  <path
     transform="translate(0,0)"
     fill="rgb(0,0,0)"
     d="M 334.353 613.334 L 335.251 613.274 C 347.124 612.587 359.589 616.084 368.528 624.15 C 380.154 634.639 384.359 650.546 385.174 665.661 C 387.076 700.902 374.328 745.761 350.483 772.127 C 336.073 788.061 319.997 797.026 298.48 798.015 C 288.291 797.766 279.495 795.574 271.084 789.575 C 257.482 779.875 250.782 762.854 248.269 746.862 C 242.971 713.154 256.68 675.805 276.459 648.872 C 291.58 628.282 309.167 617.301 334.353 613.334 z"
     id="path49" />
  <path
     transform="translate(0,0)"
     fill="rgb(250,238,236)"
     d="M 340.85 662.225 C 344.214 661.928 347.689 661.661 350.993 662.558 C 355.527 663.79 359.469 667.09 361.734 671.166 C 365.028 677.094 365.031 684.807 362.819 691.098 C 359.91 699.375 354.768 703.699 347.132 707.281 C 344.181 707.819 341.096 708.479 338.093 708.006 C 333.809 707.331 329.665 704.502 327.383 700.827 C 323.965 695.323 323.76 687.736 325.503 681.65 C 327.96 673.074 333.156 666.569 340.85 662.225 z"
     id="path50" />
  <path
     transform="translate(0,0)"
     fill="rgb(241,91,88)"
     d="M 1379.35 933.891 C 1392.25 908.434 1408.81 890.45 1436.44 881.401 C 1465.7 871.818 1500.68 877.285 1527.84 891.122 C 1572.11 913.679 1604.59 960.507 1619.45 1007.09 C 1621.26 1012.77 1622.87 1018.51 1624.29 1024.3 L 1628.32 1039.13 C 1645.28 1111.29 1633.76 1174.87 1602.81 1241.14 C 1595.64 1210.19 1584.74 1178.83 1569.84 1150.72 C 1534.83 1084.67 1484.57 1042.37 1418.16 1009.41 C 1401.48 1001.13 1383.84 992.324 1366.01 986.875 C 1367.64 967.614 1370.34 951.267 1379.35 933.891 z"
     id="path51" />
  <path
     transform="translate(0,0)"
     fill="rgb(189,52,52)"
     d="M 1379.35 933.891 C 1389.39 956.557 1425.15 965.175 1446.05 975.045 C 1461.5 982.341 1477.24 990.528 1491.45 1000.05 C 1519.55 1018.89 1546.79 1050.18 1578.26 1062.14 C 1588.57 1066.06 1597.75 1065.47 1608.3 1062.92 C 1621.41 1051.65 1620.95 1039.8 1624.29 1024.3 L 1628.32 1039.13 C 1645.28 1111.29 1633.76 1174.87 1602.81 1241.14 C 1595.64 1210.19 1584.74 1178.83 1569.84 1150.72 C 1534.83 1084.67 1484.57 1042.37 1418.16 1009.41 C 1401.48 1001.13 1383.84 992.324 1366.01 986.875 C 1367.64 967.614 1370.34 951.267 1379.35 933.891 z"
     id="path52" />
  <path
     transform="translate(0,0)"
     fill="rgb(214,69,70)"
     d="M 1624.29 1024.3 L 1628.32 1039.13 L 1627.4 1044.29 C 1626.7 1041.36 1626.26 1037.56 1624.69 1034.99 C 1623.16 1036.88 1622.21 1038.44 1622.47 1041 C 1623.04 1046.59 1626.75 1054.59 1623.01 1059.51 C 1621.47 1061.54 1619.26 1062.64 1616.75 1062.9 C 1613.99 1063.18 1611.07 1062.99 1608.3 1062.92 C 1621.41 1051.65 1620.95 1039.8 1624.29 1024.3 z"
     id="path53" />
  <path
     transform="translate(0,0)"
     fill="rgb(244,131,125)"
     d="M 1451.8 888.427 C 1469.45 887.783 1493.73 894.702 1510.38 900.668 C 1514.46 902.129 1518.87 903.783 1522.57 906.04 C 1537.07 914.88 1564.26 941.146 1571.39 956.346 C 1573.53 960.912 1576.29 968.062 1574.11 972.95 C 1573.39 974.567 1571.82 976.351 1570.13 976.882 C 1562.99 979.126 1540.72 976.786 1533.71 972.876 C 1520.67 958.596 1456.58 922.525 1437.12 915.874 C 1426.71 912.314 1415.09 911.765 1404.26 909.968 C 1419.79 899.551 1432.83 890.85 1451.8 888.427 z"
     id="path54" />
</svg>
